<?xml version="1.0" encoding="utf-8"?>
<!-- Generator: Adobe Illustrator 22.1.0, SVG Export Plug-In . SVG Version: 6.00 Build 0)  -->
<svg version="1.1" id="Layer_1" xmlns="http://www.w3.org/2000/svg" xmlns:xlink="http://www.w3.org/1999/xlink" x="0px" y="0px"
	 viewBox="0 0 1366 768" style="enable-background:new 0 0 1366 768;" xml:space="preserve">
<style type="text/css">
	.st0{fill:#ED1C24;}
	.st1{stroke:#000000;stroke-miterlimit:10;}
	.st2{fill:#ED1C24;stroke:#000000;stroke-miterlimit:10;}
	.st3{fill:#808080;stroke:#000000;stroke-miterlimit:10;}
	.st4{fill:#FFFFFF;stroke:#000000;stroke-miterlimit:10;}
	.st5{stroke:#000000;stroke-width:4;stroke-miterlimit:10;}
</style>
<g>
	<path d="M502.8,506.5c-22.2,0-40.3-18.1-40.3-40.3V235.8c0-22.2,18.1-40.3,40.3-40.3h424.6c22.1,0,40.2,18,40.2,40.2v270.8H502.8z"
		/>
	<path d="M927.3,196c21.9,0,39.7,17.8,39.7,39.7V506H502.8c-21.9,0-39.8-17.8-39.8-39.8V235.8c0-21.9,17.9-39.8,39.8-39.8H927.3
		 M927.3,195H502.8c-22.5,0-40.8,18.3-40.8,40.8v230.4c0,22.5,18.3,40.8,40.8,40.8H968V235.7C968,213.2,949.8,195,927.3,195
		L927.3,195z"/>
</g>
<g>
	<path class="st0" d="M502.8,490.5c-13.4,0-24.3-10.9-24.3-24.3V235.8c0-13.4,10.9-24.3,24.3-24.3h424.6c13.3,0,24.2,10.8,24.2,24.2
		v254.8H502.8z"/>
	<path d="M927.3,212c13,0,23.7,10.6,23.7,23.7V490H502.8c-13.1,0-23.8-10.7-23.8-23.8V235.8c0-13.1,10.7-23.8,23.8-23.8H927.3
		 M927.3,211H502.8c-13.7,0-24.8,11.1-24.8,24.8v230.4c0,13.7,11.1,24.8,24.8,24.8H952V235.7C952,222,941,211,927.3,211L927.3,211z"
		/>
</g>
<path class="st1" d="M952.5,506.5l-0.6-250l16,0c149.4,0,207.1,79.9,225,114.2c5.4,10.4,8.5,22,9,33.7l2.1,52
	c0.5,13.2-4.2,25.7-13.3,35.2s-21.5,14.8-34.7,14.8H952.5z"/>
<path class="st2" d="M968,490.5h187.6c18.2,0,32.8-15.2,32-33.4l-2.1-52c-0.4-9.4-2.8-18.6-7.2-27c-17-32.6-70.6-105.6-210.8-105.6
	L968,490.5z"/>
<circle class="st1" cx="595" cy="499" r="74.5"/>
<circle class="st3" cx="595" cy="499" r="58.5"/>
<circle class="st1" cx="1061" cy="499" r="74.5"/>
<circle class="st3" cx="1061" cy="499" r="58.5"/>
<path class="st1" d="M994.5,355.7v-55.2c0-4.5,3.6-8.1,8.1-8l0,0c31.4,0.4,60.4,12,83.8,33.5c17.6,16.2,25.9,32.2,26.2,32.9l0,0
	c2.7,5.3-1.2,11.6-7.1,11.6h-96.2C1001.1,370.5,994.5,363.9,994.5,355.7z"/>
<path class="st4" d="M1002.5,311.9v39.9c0,5.9,4.8,10.7,10.7,10.7h72c9,0,14-10.5,8.3-17.5c-13.7-16.5-39.3-39.4-79.1-43.8
	C1008,300.5,1002.5,305.5,1002.5,311.9z"/>
<path class="st1" d="M425.5,256.5H177c-8.3,0-15-6.7-15-15v0c0-8.3,6.7-15,15-15h248.5c8.3,0,15,6.7,15,15v0
	C440.5,249.8,433.8,256.5,425.5,256.5z"/>
<path class="st1" d="M425.5,344.5h-94c-8.3,0-15-6.7-15-15v0c0-8.3,6.7-15,15-15h94c8.3,0,15,6.7,15,15v0
	C440.5,337.8,433.8,344.5,425.5,344.5z"/>
<path class="st1" d="M425.5,439.5H316.2c-8.3,0-15-6.7-15-15v0c0-8.3,6.7-15,15-15h109.3c8.3,0,15,6.7,15,15v0
	C440.5,432.8,433.8,439.5,425.5,439.5z"/>
<path class="st1" d="M260.5,439.5h-22c-8.3,0-15-6.7-15-15v0c0-8.3,6.7-15,15-15h22c8.3,0,15,6.7,15,15v0
	C275.5,432.8,268.8,439.5,260.5,439.5z"/>
<path class="st5" d="M798,331.3v0.1c0,8.8-7.1,15.9-15.9,16l-66.6,0.5v75.6c0,8.8-7.2,16-16,16s-16-7.2-16-16v-75.4l-67.4,0.5
	c-8.8,0.1-16-7-16.1-15.9c-0.1-8.8,7-16,15.9-16.1l67.6-0.5v-58.6c0-8.8,7.2-16,16-16c4.4,0,8.4,1.8,11.3,4.7
	c2.9,2.9,4.7,6.9,4.7,11.3v58.4l66.4-0.5C790.7,315.4,797.9,322.5,798,331.3z"/>
<g>
	<g>
		<path d="M737.8,459l25.9-70.3h8.4L798,459h-10.6l-19.5-56.7L748.4,459H737.8z M749.7,443.6v-9.4h37v9.4H749.7z"/>
		<path d="M808.6,459v-70.3h9.9V459H808.6z M815.3,459v-9.4h15.9c5.2,0,9.2-1.3,12.1-4c2.9-2.7,4.3-6.5,4.3-11.4v-20.7
			c0-4.9-1.4-8.7-4.3-11.4c-2.9-2.7-6.9-4-12.1-4h-15.9v-9.4h15.6c8.5,0,15.1,2.2,19.7,6.6c4.7,4.4,7,10.6,7,18.6v19.9
			c0,8-2.3,14.2-7,18.6c-4.7,4.4-11.3,6.6-19.8,6.6H815.3z"/>
		<path d="M873.6,459v-70.3h9.9V459H873.6z M880.3,459v-9.4h15.9c5.2,0,9.2-1.3,12.1-4c2.9-2.7,4.3-6.5,4.3-11.4v-20.7
			c0-4.9-1.4-8.7-4.3-11.4c-2.9-2.7-6.9-4-12.1-4h-15.9v-9.4h15.6c8.5,0,15.1,2.2,19.7,6.6c4.7,4.4,7,10.6,7,18.6v19.9
			c0,8-2.3,14.2-7,18.6c-4.7,4.4-11.3,6.6-19.8,6.6H880.3z"/>
	</g>
</g>
</svg>
