<svg id="Layer_1" data-name="Layer 1" xmlns="http://www.w3.org/2000/svg" viewBox="0 0 1366 768"><defs><style>.cls-1,.cls-3{fill:#ed1c24;}.cls-2,.cls-3,.cls-4,.cls-5{stroke:#000;stroke-miterlimit:10;}.cls-4{fill:gray;}.cls-5{fill:#fff;}</style></defs><title>Artboard 1</title><path d="M422.76,415.5a40.3,40.3,0,0,1-40.26-40.26V144.79a40.34,40.34,0,0,1,40.29-40.29H847.35a40.19,40.19,0,0,1,40.15,40.15V415.5Z"/><path d="M847.35,105A39.7,39.7,0,0,1,887,144.65V415H422.76A39.81,39.81,0,0,1,383,375.24V144.79A39.84,39.84,0,0,1,422.79,105H847.35m0-1H422.79A40.84,40.84,0,0,0,382,144.79V375.24A40.81,40.81,0,0,0,422.76,416H888V144.65A40.7,40.7,0,0,0,847.35,104Z"/><path class="cls-1" d="M422.76,399.5a24.28,24.28,0,0,1-24.26-24.26V144.79a24.32,24.32,0,0,1,24.29-24.29H847.35a24.17,24.17,0,0,1,24.15,24.15V399.5Z"/><path d="M847.35,121A23.68,23.68,0,0,1,871,144.65V399H422.76A23.79,23.79,0,0,1,399,375.24V144.79A23.82,23.82,0,0,1,422.8,121H847.35m0-1H422.8A24.79,24.79,0,0,0,398,144.79V375.24A24.77,24.77,0,0,0,422.76,400H872V144.65A24.65,24.65,0,0,0,847.35,120Z"/><path class="cls-2" d="M872.54,415.5l-.58-250h16c149.42,0,207.1,79.87,225,114.21a80.77,80.77,0,0,1,9,33.73l2.15,52.05a48,48,0,0,1-48,50Z"/><path class="cls-3" d="M888,399.5h187.61a32,32,0,0,0,32-33.36l-2.14-52.05a64.34,64.34,0,0,0-7.2-27c-17-32.6-70.6-105.59-210.78-105.59Z"/><circle class="cls-2" cx="515" cy="408" r="74.5"/><circle class="cls-4" cx="515" cy="408" r="58.5"/><circle class="cls-2" cx="981" cy="408" r="74.5"/><circle class="cls-4" cx="981" cy="408" r="58.5"/><path class="cls-2" d="M914.5,264.73V209.5a8,8,0,0,1,8.11-8h0a124.78,124.78,0,0,1,83.8,33.48c17.61,16.17,25.88,32.22,26.22,32.9h0a8,8,0,0,1-7.13,11.62H929.27A14.77,14.77,0,0,1,914.5,264.73Z"/><path class="cls-5" d="M922.5,220.87V260.8a10.7,10.7,0,0,0,10.7,10.7h72a10.7,10.7,0,0,0,8.26-17.5c-13.66-16.52-39.34-39.39-79.1-43.77A10.7,10.7,0,0,0,922.5,220.87Z"/><rect class="cls-2" x="81.99" y="135.5" width="278.51" height="30" rx="15" ry="15"/><rect class="cls-2" x="236.49" y="223.5" width="124.01" height="30" rx="15" ry="15"/><rect class="cls-2" x="221.24" y="318.5" width="139.26" height="30" rx="15" ry="15"/><rect class="cls-2" x="143.49" y="318.5" width="52.01" height="30" rx="15" ry="15"/><text></text><path d="M178.19,612.08V510.56h10.05V612.08Zm9.63,0v-9.36h23q14.11,0,21.13-6.59t7-19.87V546.38q0-13.27-7-19.87t-21.13-6.6h-23v-9.35h22.56q19.34,0,29,9.07t9.64,27.3V575.7q0,18.22-9.64,27.3t-29,9.08Z"/><path d="M301,613.13q-15.15,0-23.46-8.49t-8.31-24v-8.17q0-16.2,8-25.07t22.55-8.87q13.68,0,21.19,8.73t7.51,24.65v8.31H276.08v-9.08h43v-.7q0-10.74-5.06-16.65t-14.28-5.9q-10.12,0-15.64,6.22t-5.52,17.59v9.22q0,10.89,5.87,16.86t16.55,6q10.55,0,18.71-8l6.84,6.56a39.38,39.38,0,0,1-12.08,8A34.47,34.47,0,0,1,301,613.13Z"/><path d="M358.05,510.56V593c0,3.07.75,5.46,2.24,7.15a8,8,0,0,0,6.35,2.55h6.71v9.36H365q-8,0-12.5-5T348,592.88V510.56Z"/><path d="M391.5,520.61V510.56h10.05v10.05Zm0,91.47V539.6h10.05v72.48Z"/><path d="M450.29,599l21.86-59.42h10.68l-28.56,72.48h-8l-28.7-72.48H428.3Z"/><path d="M525.07,613.13q-15.15,0-23.46-8.49t-8.31-24v-8.17q0-16.2,8-25.07t22.56-8.87q13.68,0,21.19,8.73t7.5,24.65v8.31H500.15v-9.08h43v-.7q0-10.74-5.06-16.65t-14.28-5.9q-10.12,0-15.64,6.22t-5.52,17.59v9.22q0,10.89,5.87,16.86t16.54,6q10.54,0,18.72-8l6.84,6.56a39.5,39.5,0,0,1-12.08,8A34.52,34.52,0,0,1,525.07,613.13Z"/><path d="M572.07,612.08V539.6h10v72.48Zm42.66-59.49q-4.54-4.68-13.48-4.68-9.15,0-14.14,4.89t-5,13.41l-1.47-14a28.71,28.71,0,0,1,10.41-10,28.29,28.29,0,0,1,14.17-3.64q9.91,0,16,5.66Z"/><path d="M654.32,618,625.41,539.6h10.34l23.81,67.24Zm24.93-78.42h10.33l-30.86,89.45c-2,4.89-4.57,8.32-7.68,10.3s-7.52,3-13.2,3H635v-9.49h2.86q5.58,0,8.87-2.55t5.72-8.76Z"/><path d="M718.21,612.08l37.42-101.52h12.15l37.43,101.52H794l-32.33-91-32.33,91Zm17.24-24.65v-9.35h53.42v9.35Z"/><path d="M819.17,641.55V539.6h10.06V641.55Zm32.47-28.42a35.13,35.13,0,0,1-14.42-2.73,17.2,17.2,0,0,1-9-9.7l1-15.15a20,20,0,0,0,2.16,9,18.37,18.37,0,0,0,6.29,7.16,17.36,17.36,0,0,0,10,2.79q9.08,0,14-5.41t4.95-15.19V568.16q0-10-4.95-15.47t-14-5.48a17.49,17.49,0,0,0-10,2.76,18.33,18.33,0,0,0-6.29,7,19.22,19.22,0,0,0-2.16,8.8l-1.47-14q3.91-7.4,10.34-10.33a33.81,33.81,0,0,1,14.24-2.94q11.65,0,18,7.72t6.35,21.82v15.78q0,14-6.56,21.61T851.64,613.13Z"/><path d="M897,641.55V539.6h10V641.55Zm32.47-28.42A35.07,35.07,0,0,1,915,610.4a17.18,17.18,0,0,1-9-9.7l1-15.15a19.89,19.89,0,0,0,2.17,9,18.34,18.34,0,0,0,6.28,7.16,17.41,17.41,0,0,0,10,2.79q9.07,0,14-5.41t5-15.19V568.16q0-10-5-15.47t-14-5.48a17.55,17.55,0,0,0-10,2.76,18.3,18.3,0,0,0-6.28,7,19.11,19.11,0,0,0-2.17,8.8l-1.47-14q3.91-7.4,10.34-10.33a33.81,33.81,0,0,1,14.24-2.94q11.67,0,18,7.72t6.35,21.82v15.78q0,14-6.56,21.61T929.43,613.13Z"/><path d="M1000.58,612.08V510.56h10V612.08Zm7.33-39.38v-9.36h32.47q9,0,14.48-5.93t5.49-15.71q0-9.86-5.49-15.82t-14.48-6h-32.47v-9.35h32a32.12,32.12,0,0,1,16,3.87,27,27,0,0,1,10.68,10.89,37,37,0,0,1,0,32.72,26.81,26.81,0,0,1-10.68,10.82,32.32,32.32,0,0,1-16,3.84Z"/><path d="M1084.37,612.08V539.6h10.05v72.48ZM1127,552.59q-4.54-4.68-13.48-4.68-9.15,0-14.14,4.89t-5,13.41l-1.47-14a28.71,28.71,0,0,1,10.41-10,28.31,28.31,0,0,1,14.17-3.64q9.92,0,16,5.66Z"/><path d="M1170.39,613.13q-14.25,0-22.06-8.28t-7.83-23.28v-11.8q0-14.88,7.83-23t22.06-8.17q14.25,0,22.06,8.17t7.82,23v12q0,14.94-7.82,23.14T1170.39,613.13Zm-.07-9.36q9.5,0,14.7-5.76t5.2-16.23v-12q0-10.41-5.2-16.13t-14.7-5.73q-9.42,0-14.59,5.73t-5.17,16.13v12q0,10.47,5.17,16.23T1170.32,603.77Z"/></svg>